<svg id="Layer_1" enable-background="new 0 0 511 511" height="512" viewBox="0 0 511 511" width="512" xmlns="http://www.w3.org/2000/svg"><g><g><path d="m511 255.5c0 57.695-19.123 110.923-51.377 153.693-46.632 61.835-120.709 81.73-204.123 81.73-141.109 0-237.135-96.453-237.135-237.562 0-54.932-1.029-103.675 28.469-145.337 46.277-65.36 122.489-108.024 208.666-108.024 141.109 0 255.5 114.391 255.5 255.5z" fill="#56d8b6"/></g><g><path d="m454.705 415.486c14.159-17.604 21.906-39.503 21.906-62.095v-65.587c0-29.86-21.373-54.728-49.655-60.141-7.015-1.342-12.431-6.938-13.462-14.005l-.132-.905c-1.198-8.21-8.238-14.298-16.535-14.298-9.229 0-16.71-7.481-16.71-16.71v-121.423c0-12.692-10.289-22.98-22.98-22.98h-172.314c-12.692 0-22.98 10.289-22.98 22.98v138.133h-17.383c-7.609 0-13.777 6.168-13.777 13.777v14.338h-4.101c-.086 0-.173 0-.259.001-14.985.062-27.684-10.94-29.328-25.835-1.024-9.276-1.55-18.702-1.55-28.252 0-14.622 1.229-28.957 3.59-42.906 5.124-30.277-34.461-46.618-52.205-21.556-29.568 41.765-46.83 92.702-46.83 147.478 0 63.162 23.143 123.635 65.349 170.637 10.606 11.811 22.298 22.624 34.916 32.291 44.549 34.13 98.82 52.572 155.235 52.572 80.652 0 152.451-37.387 199.205-95.514z" fill="#00babd"/></g><g><g><path d="m225.946 54.145h137.211v137.108h-137.211z" fill="#fff"/></g><g><path d="m228.944 118.214v-64.069h-84.06v309.088h218.273v-174.907h-64.1c-38.723 0-70.113-31.39-70.113-70.112z" fill="#a2dffd"/></g><g><path d="m208.986 215.258h185.33v53.393h-185.33z" fill="#475770"/></g><g><path d="m113.724 215.258h103.081v53.393h-103.081z" fill="#323b49"/></g><g><path d="m459.651 452.708v-148.102c0-33.819-27.415-61.234-61.234-61.234h-254.441v209.336z" fill="#323b49"/></g><g><path d="m145.67 413.192c0-1.18.083-2.334.226-3.464v-130.539c0-13.377 4.302-25.743 11.581-35.816h-47.854c-33.819 0-61.234 27.415-61.234 61.234v170.623h97.281z" fill="#1b1e21"/></g><g><path d="m361.678 449.813h97.973v25.418h-97.973z" fill="#1b1e21"/></g><g><path d="m363.157 452.708v-78.892c0-18.354-14.879-33.232-33.233-33.232h-120.938v112.124z" fill="#82abca"/></g><g><path d="m261.903 449.964c-28.193 0-51.047-22.855-51.047-51.047v-50.367c0-2.747.34-5.413.968-7.966h-33.708c-18.354 0-33.232 14.879-33.232 33.232v101.414h218.273v-25.267h-101.254z" fill="#4a82ae"/></g><g><circle cx="113.341" cy="301.306" fill="#d5f1fe" r="13.779"/></g><g><circle cx="163.62" cy="301.306" fill="#e04955" r="9"/></g></g></g></svg>